<svg xmlns="http://www.w3.org/2000/svg" xmlns:xlink="http://www.w3.org/1999/xlink" width="55" height="55" viewBox="0 0 55 55">
  <defs>
    <clipPath id="clip-path">
      <rect id="SVGID" width="19.137" height="28.634" fill="none"/>
    </clipPath>
  </defs>
  <g id="组_50" data-name="组 50" transform="translate(-511 -1049)">
    <rect id="矩形_155" data-name="矩形 155" width="55" height="55" rx="4" transform="translate(511 1049)" fill="#0f8df2"/>
    <g id="组_49" data-name="组 49" transform="translate(528.053 1061.789)">
      <g id="组_5" data-name="组 5" transform="translate(0 0)">
        <g id="组_2" data-name="组 2" transform="translate(0 0)">
          <g id="组_1" data-name="组 1" clip-path="url(#clip-path)">
            <path id="路径_1" data-name="路径 1" d="M665.508,1270.617v-.062a.123.123,0,0,0,0-.022c0-.007,0-.016,0-.024a.035.035,0,0,1,0-.016.307.307,0,0,0,0-.037.06.06,0,0,0,0-.019v-.006c0-.021-.006-.042-.009-.064v0a.026.026,0,0,0,0-.013l-.009-.049,0-.011-.005-.025c0-.009,0-.02-.006-.03l0-.019-.006-.028a.077.077,0,0,0-.005-.02l-.007-.028-.007-.027,0-.012-.012-.041-.007-.022v-.005l-.021-.065v0l-.005-.014-.017-.049,0-.011-.009-.023-.01-.028-.009-.023-.01-.024-.006-.015-.017-.041-.007-.015-.01,0c-.009-.021-.019-.042-.028-.062l0-.005-.011-.023-.02-.04,0-.009-.019-.037c-.006-.012-.01-.02-.016-.029l0-.007c-.017-.032-.035-.064-.053-.1l0-.006,0-.007q-.043-.073-.09-.144l0-.007-.009-.012c-.023-.032-.046-.066-.069-.1l0,0-.055-.071v0c-.016-.021-.032-.042-.049-.061l-.01-.012c-.013-.015-.026-.032-.039-.046l0,0-.018-.02-.028-.032-.007-.007-.023-.024-.023-.024-.01-.01-.025-.024-.02-.02-.013-.012-.026-.025-.017-.016-.015-.013-.027-.023-.015-.013-.018-.015-.026-.021-.013-.01-.023-.018-.024-.019-.01-.007-.032-.021-.02-.015-.005,0-.055-.036-.005,0-.049-.03-.013-.008-13.426-7.753-.041-.023-.016-.008-.021-.011-.016-.009-.026-.012-.019-.009-.008,0-.05-.021-.052-.02-.006,0-.018-.006-.027-.009-.013,0-.023-.006-.018,0-.018,0-.022,0-.012,0-.02,0-.026,0h-.01l-.021,0-.028,0h-.083a.283.283,0,0,0-.041,0h-.021c-.021,0-.041,0-.061.009h0a.729.729,0,0,0-.081.022l-.007,0-.005,0-.034.013-.016.007-.048.025-3.123,1.815.048-.025.016-.007.034-.013.013,0a.63.63,0,0,1,.081-.022h.005c.02,0,.04-.007.061-.009l.021,0,.04,0h.082l.028,0,.03,0,.026,0,.032.006.023.005.035.009.023.006.039.012.019.006.059.022.058.025.019.009.042.02.021.011.057.032,13.426,7.75.061.037.005,0,.06.04.021.015.04.029.024.019.036.028.026.021.034.028.027.023.032.029.026.024.032.032.024.024.032.034.023.024.035.039.018.02.044.051.009.011.051.064.055.071,0,0c.024.032.047.064.069.1l.013.019q.047.071.09.145l.007.013c.018.031.036.063.053.1l.019.037.019.037c.009.016.016.032.024.05l.011.023c.011.023.021.047.031.071l.007.015.024.057.009.023c.007.017.013.034.02.052l.009.023c.007.019.014.039.021.059l0,.014.024.073.006.022.015.053c0,.009.005.018.007.027s.008.032.012.048l.006.028c0,.016.007.032.011.048s0,.017.005.026l.011.061a.023.023,0,0,0,0,.012c0,.024.007.049.01.073a.056.056,0,0,0,0,.019c0,.018,0,.035.005.053a.1.1,0,0,0,0,.024c0,.017,0,.033,0,.05v.092l-.029,10.113c0,.024,0,.047,0,.07v.019c0,.016,0,.032,0,.047s0,.017,0,.026,0,.026,0,.039l0,.028c0,.009,0,.023-.006.035l-.006.032c0,.012,0,.021-.007.032s-.006.023-.009.035l-.008.027c0,.013-.008.027-.013.04l-.008.022c-.009.022-.018.044-.027.064l0,.006a.763.763,0,0,1-.043.079l0,.007c-.013.021-.027.039-.041.058l-.011.013c-.014.017-.028.032-.044.048l0,0a.6.6,0,0,1-.052.044l-.013.01c-.018.013-.037.026-.056.038l3.123-1.815a.657.657,0,0,0,.056-.037l.013-.01a.669.669,0,0,0,.051-.045l0,0c.016-.015.03-.032.043-.048l.011-.013a.707.707,0,0,0,.041-.058v0l0,0a.8.8,0,0,0,.043-.079l0,0v0c.01-.021.019-.042.027-.064l0-.006.005-.016c0-.013.01-.027.013-.04s0-.007,0-.011l0-.015c0-.012.006-.023.009-.035a.06.06,0,0,1,0-.014l0-.016c0-.005,0-.02.006-.032a.087.087,0,0,1,0-.015l0-.019,0-.028c0-.01,0-.01,0-.015a.13.13,0,0,0,0-.024c0-.008,0-.018,0-.027v-.011a.206.206,0,0,1,0-.035v-.089l.029-10.113a.188.188,0,0,0,.008-.06Zm0,0" transform="translate(-646.366 -1254.909)" fill="#e1e4ef"/>
            <path id="路径_2" data-name="路径 2" d="M660.233,1274.206a2.813,2.813,0,0,1,1.279,2.208l-.029,10.113c0,.811-.579,1.135-1.287.727l-13.425-7.751a2.81,2.81,0,0,1-1.279-2.208l.029-10.113c0-.81.579-1.135,1.287-.726Zm0,0" transform="translate(-645.492 -1258.834)" fill="#fff"/>
          </g>
        </g>
        <path id="路径_3" data-name="路径 3" d="M663.485,1254.882c0-.022,0-.044.007-.066s.007-.066.012-.1.007-.047.01-.07.01-.059.015-.088.011-.054.016-.077.011-.052.018-.077.015-.059.023-.088l.02-.068c.01-.034.022-.068.034-.1s.015-.043.023-.063l.012-.032c.014-.035.029-.07.044-.1l.008-.018c.019-.042.04-.083.062-.121l.007-.012c.019-.035.039-.069.061-.1l.016-.023c.018-.027.036-.052.054-.078l.023-.032q.027-.035.056-.068l.021-.025c.026-.029.053-.057.081-.084l.013-.011c.024-.023.048-.044.073-.064l.028-.023c.022-.017.044-.034.066-.05l.028-.02c.032-.021.064-.042.1-.061l-1.561.907-.1.061-.028.02c-.022.016-.044.032-.066.05l-.028.023-.073.063-.013.013c-.028.027-.054.055-.08.084l-.022.025c-.019.021-.037.044-.056.068l-.023.032c-.019.025-.037.051-.055.078l-.016.023,0,.007c-.019.032-.038.062-.056.094l-.007.012q-.032.056-.059.115l0,.007-.008.018q-.023.051-.044.1l-.012.032-.01.024c0,.008-.009.027-.013.04-.012.032-.023.067-.034.1,0,.01-.007.018-.009.028l-.01.04c-.008.029-.016.058-.023.088,0,.012-.007.024-.01.037s-.005.027-.008.041-.011.051-.016.077-.006.026-.008.04,0,.032-.007.047-.007.047-.011.07,0,.024-.005.037,0,.041-.006.061,0,.044-.007.067,0,.018,0,.027c0,.03,0,.061-.006.091s0,.032,0,.049v.012c0,.051,0,.1,0,.155v.009l-.007,2.636,1.561-.907.007-2.637c0-.06,0-.119,0-.177,0-.017,0-.032,0-.049,0-.04.005-.08.008-.118Zm0,0" transform="translate(-656.722 -1249.855)" fill="#fbc618"/>
        <g id="组_4" data-name="组 4" transform="translate(0 0)">
          <g id="组_3" data-name="组 3" clip-path="url(#clip-path)">
            <path id="路径_4" data-name="路径 4" d="M671.553,1253.45v-.055c0-.079-.006-.16-.011-.238v-.026c-.005-.074-.011-.149-.018-.224a.128.128,0,0,0,0-.03c0-.01,0-.013,0-.019-.008-.079-.016-.158-.027-.238a.058.058,0,0,0,0-.018.287.287,0,0,1,0-.03c-.01-.078-.021-.156-.032-.235a.04.04,0,0,0,0-.017v-.006q-.02-.125-.043-.25l0-.028c0-.009,0-.017-.005-.025-.016-.085-.033-.17-.052-.255a.055.055,0,0,0,0-.013l-.006-.027c-.018-.083-.037-.166-.058-.249a.087.087,0,0,0,0-.019l0-.007c-.021-.088-.045-.176-.069-.263l-.007-.028-.007-.023c-.024-.085-.049-.171-.075-.258l0-.016-.009-.029q-.039-.125-.08-.249l0-.013v0c-.028-.085-.058-.17-.089-.256,0-.01-.007-.019-.01-.028l-.009-.025q-.044-.121-.09-.241l0-.01-.01-.026c-.028-.072-.057-.145-.087-.217l-.012-.032-.007-.017c-.033-.078-.066-.156-.1-.234l-.008-.018-.014-.032q-.049-.109-.1-.219l-.01-.023,0-.009c-.041-.088-.084-.175-.127-.263l-.013-.027-.009-.018c-.05-.1-.1-.2-.153-.3l-.012-.023-.013-.023-.12-.219-.017-.029-.111-.193-.017-.032-.01-.017c-.06-.1-.121-.2-.183-.3l-.022-.035q-.1-.151-.194-.3l-.012-.019-.009-.013q-.075-.112-.152-.224l-.032-.046-.16-.224v0l0,0q-.118-.16-.239-.313l-.007-.009-.015-.02q-.1-.124-.2-.245l0,0-.007-.009c-.064-.077-.129-.154-.2-.229l-.014-.016-.006-.007q-.1-.109-.194-.215l-.019-.021-.015-.015q-.1-.106-.2-.209l-.016-.017-.018-.018q-.1-.1-.207-.2l-.011-.011-.018-.017c-.074-.07-.148-.139-.224-.207l-.006-.006-.014-.012c-.077-.07-.155-.137-.234-.2s-.154-.127-.232-.189l-.017-.014-.009-.007q-.107-.085-.216-.165l-.021-.016-.018-.013c-.07-.051-.141-.1-.211-.15l-.015-.01-.023-.016c-.07-.047-.139-.093-.21-.139l0,0c-.07-.045-.141-.087-.211-.13l-.024-.015-.055-.032-.857-.494c-.055-.032-.11-.062-.164-.092l-.027,0-.024-.012-.182-.1-.023-.012-.01,0q-.1-.049-.2-.094l-.019-.009-.025-.01c-.065-.029-.131-.057-.2-.083l0,0c-.068-.027-.135-.052-.2-.076l-.023-.009-.018-.005c-.066-.023-.131-.044-.2-.064l-.011,0-.074-.022-.037-.009-.123-.032h0l-.025-.006-.1-.023-.044-.009-.057-.012-.022,0-.057-.01-.07-.012-.057-.009-.037-.008-.028,0-.062-.007-.064-.007-.061-.005-.034,0H662.8l-.074-.005-.057,0h-.126c-.031,0-.067,0-.1,0h-.037l-.134.009h0l-.015,0c-.042,0-.085.009-.128.015l-.041.006c-.041.006-.081.013-.121.021l-.018,0h-.007l-.037.008-.07.016-.042.011-.064.017-.043.012-.061.019-.043.014-.028.01-.024.009-.067.026-.047.023-.068.029-.042.019-.072.035-.035.018q-.052.027-.1.057l-1.561.908c.034-.02.069-.039.1-.058l.035-.017.072-.035.042-.019.067-.029.046-.018.067-.026.052-.018.043-.015.06-.019.043-.013.064-.016.042-.011.07-.016.037-.008.026,0,.121-.021.041-.006.127-.015.019,0c.044,0,.088-.007.133-.01h.036l.1,0h.125l.059,0,.071,0,.062,0,.061.005.064.007.062.007.068.009.057.009.071.012.057.01.079.016.044.01.1.023.026.006.126.032.036.01.085.025c.064.02.129.041.2.063l.042.016q.1.035.2.076l0,0c.064.026.13.054.2.083l.044.02c.065.03.131.061.2.093l.032.017c.061.03.121.062.182.1l.038.021.164.091.858.491.079.047c.071.042.141.085.211.13l.005,0q.106.068.21.139l.038.026c.071.049.141.1.211.15l.039.029q.109.08.216.165l.026.021q.116.092.232.189l0,0q.118.1.234.2l.02.018q.113.1.224.207l.03.028c.07.067.139.135.207.2l.035.036q.1.1.2.209l.034.036q.1.106.193.215l.02.022c.066.076.132.152.2.23l.01.012q.1.121.2.245l.023.029c.081.1.16.207.239.313l0,.006q.081.111.16.224l.032.046q.077.111.152.224l.021.032q.1.148.194.3l.021.034c.062.1.123.2.183.3l.028.047c.037.064.074.128.111.193l.016.029c.041.073.081.145.12.219l.024.046q.079.147.154.3l.022.044.128.263.015.032q.051.11.1.219l.021.049q.051.117.1.234l.02.048c.03.072.059.144.087.217l.014.036c.031.08.061.161.09.241l.019.053c.032.084.06.169.089.255l.005.017c.028.083.055.166.08.25l.014.045c.026.085.051.171.075.258l.014.051q.036.132.069.263l.006.025q.031.125.058.249l.009.04c.018.085.036.17.052.255l.01.053c.015.083.03.167.043.25a.144.144,0,0,0,0,.023c.012.078.023.156.032.234,0,.016,0,.032.006.048.01.08.019.159.026.239,0,.016,0,.032,0,.048q.01.112.018.223a.127.127,0,0,0,0,.026c.005.079.009.159.011.237,0,.018,0,.036,0,.055,0,.075,0,.15,0,.223l-.007,2.637,1.562-.907.007-2.637c0-.077,0-.151,0-.226Zm0,0" transform="translate(-655.103 -1242.701)" fill="#f9d375"/>
            <path id="路径_5" data-name="路径 5" d="M660.812,1246.841a12.375,12.375,0,0,1,5.6,9.708l-.007,2.637-2.4-1.384.008-2.637a7.1,7.1,0,0,0-3.215-5.569l-.857-.495c-1.779-1.027-3.231-.2-3.236,1.844l-.007,2.636-2.4-1.384.007-2.636c.01-3.562,2.54-5,5.641-3.215Zm0,0" transform="translate(-651.525 -1244.668)" fill="#fbb005"/>
          </g>
        </g>
      </g>
    </g>
  </g>
</svg>
