<svg xmlns="http://www.w3.org/2000/svg" width="55" height="55" viewBox="0 0 55 55">
  <g id="组_52" data-name="组 52" transform="translate(-373 -1049)">
    <rect id="矩形_153" data-name="矩形 153" width="55" height="55" rx="4" transform="translate(373 1049)" fill="#0f8df2"/>
    <g id="组_47" data-name="组 47" transform="translate(380.3 1062.919)">
      <g id="组_20" data-name="组 20" transform="translate(0 0)">
        <g id="组_7" data-name="组 7" transform="translate(14.768 21.342)">
          <path id="路径_6" data-name="路径 6" d="M855.8,1318.534l.131.025v-1.869l-.131-.026Z" transform="translate(-855.801 -1315.453)" fill="#fff"/>
          <path id="路径_7" data-name="路径 7" d="M855.8,1322.127v.113l1.959.38v-.114Z" transform="translate(-855.801 -1319.16)" fill="#fff"/>
          <path id="路径_8" data-name="路径 8" d="M856.207,1314.188l2.468-1.21v1.755l-2.468,1.21Z" transform="translate(-856.077 -1312.952)" fill="#0d78ce"/>
          <path id="路径_9" data-name="路径 9" d="M856.207,1320.445l1.7.332v-.584l-.005-.581Z" transform="translate(-856.077 -1317.453)" fill="#005fa0"/>
          <path id="路径_10" data-name="路径 10" d="M861.49,1319.637l.13.025v-1.869l-.13-.026Z" transform="translate(-859.661 -1316.202)" fill="#fff"/>
          <path id="路径_11" data-name="路径 11" d="M861.9,1315.433l2.3-1.144v1.869l-2.3,1.144Z" transform="translate(-859.937 -1313.842)" fill="#0d78ce"/>
          <path id="路径_12" data-name="路径 12" d="M861.49,1315.353l2.3-1.144.131.026-2.3,1.144Z" transform="translate(-859.661 -1313.787)" fill="#d3eafd"/>
          <path id="路径_13" data-name="路径 13" d="M855.8,1314.109l2.468-1.211.131.025-2.468,1.211Z" transform="translate(-855.801 -1312.898)" fill="#d3eafd"/>
        </g>
        <path id="路径_14" data-name="路径 14" d="M885.857,1326.133l2.069-1.018,2.151.424-2.069,1.018Z" transform="translate(-861.427 -1299.846)" fill="#d3eafd"/>
        <path id="路径_15" data-name="路径 15" d="M885.857,1322.7l1.006-2.644,1.125.215.019,2.853Z" transform="translate(-861.427 -1296.415)" fill="#fff"/>
        <path id="路径_16" data-name="路径 16" d="M894.575,1321.386l-2.069,1.018-.019-2.853,1.083-.557Z" transform="translate(-865.925 -1295.693)" fill="#0d78ce"/>
        <path id="路径_17" data-name="路径 17" d="M897.84,1331" transform="translate(-869.558 -1303.841)" fill="#fff"/>
        <path id="路径_18" data-name="路径 18" d="M826.511,1314.682l2.069-1.018,2.151.424-2.069,1.018Z" transform="translate(-821.158 -1292.076)" fill="#d3eafd"/>
        <path id="路径_19" data-name="路径 19" d="M826.511,1311.25l1.006-2.644,1.125.215.019,2.853Z" transform="translate(-821.158 -1288.645)" fill="#fff"/>
        <path id="路径_20" data-name="路径 20" d="M835.229,1309.935l-2.069,1.018-.019-2.853,1.083-.557Z" transform="translate(-825.657 -1287.923)" fill="#0d78ce"/>
        <path id="路径_21" data-name="路径 21" d="M833.879,1294.232l-1.083.532,30.667,5.917v-.746Z" transform="translate(-825.423 -1278.891)" fill="#0d78ce"/>
        <path id="路径_22" data-name="路径 22" d="M928.194,1283.352l1.125.218v-16.1l-1.125-.222Z" transform="translate(-890.154 -1260.581)" fill="#fff"/>
        <path id="路径_23" data-name="路径 23" d="M928.194,1266.123l1.083-.532,1.125.221-1.083.533Z" transform="translate(-890.154 -1259.457)" fill="#d3eafd"/>
        <path id="路径_24" data-name="路径 24" d="M932.777,1266.281v16.1l-1.083.532v-16.1Z" transform="translate(-892.529 -1259.925)" fill="#0d78ce"/>
        <g id="组_8" data-name="组 8" transform="translate(31.682 4.907)">
          <path id="路径_25" data-name="路径 25" d="M908.415,1262.307l1.083-.533,1.125.222-1.083.533Z" transform="translate(-908.415 -1261.774)" fill="#d3eafd"/>
          <path id="路径_26" data-name="路径 26" d="M908.415,1279.536l1.125.218v-16.1l-1.125-.222Z" transform="translate(-908.415 -1262.898)" fill="#fff"/>
          <path id="路径_27" data-name="路径 27" d="M913,1262.465v16.1l-1.083.532V1263Z" transform="translate(-910.79 -1262.243)" fill="#0d78ce"/>
        </g>
        <g id="组_9" data-name="组 9" transform="translate(25.323 3.68)">
          <path id="路径_28" data-name="路径 28" d="M888.635,1275.719l1.124.218v-16.1l-1.125-.222Z" transform="translate(-888.635 -1259.082)" fill="#fff"/>
          <path id="路径_29" data-name="路径 29" d="M888.635,1258.491l1.083-.533,1.125.222-1.083.532Z" transform="translate(-888.635 -1257.958)" fill="#d3eafd"/>
          <path id="路径_30" data-name="路径 30" d="M893.218,1258.649v16.1l-1.083.533v-16.1Z" transform="translate(-891.01 -1258.427)" fill="#0d78ce"/>
        </g>
        <g id="组_10" data-name="组 10" transform="translate(18.965 2.454)">
          <path id="路径_31" data-name="路径 31" d="M868.855,1271.9l1.124.218v-16.1l-1.125-.222Z" transform="translate(-868.855 -1255.266)" fill="#fff"/>
          <path id="路径_32" data-name="路径 32" d="M868.855,1254.674l1.083-.532,1.125.222-1.083.533Z" transform="translate(-868.855 -1254.142)" fill="#d3eafd"/>
          <path id="路径_33" data-name="路径 33" d="M873.438,1254.833v16.1l-1.083.533v-16.1Z" transform="translate(-871.23 -1254.61)" fill="#0d78ce"/>
        </g>
        <g id="组_11" data-name="组 11" transform="translate(12.606 1.227)">
          <path id="路径_34" data-name="路径 34" d="M849.076,1268.087l1.125.218v-16.1l-1.125-.222Z" transform="translate(-849.076 -1251.45)" fill="#fff"/>
          <path id="路径_35" data-name="路径 35" d="M849.076,1250.858l1.083-.533,1.125.222-1.083.532Z" transform="translate(-849.076 -1250.325)" fill="#d3eafd"/>
          <path id="路径_36" data-name="路径 36" d="M853.658,1251.016v16.1l-1.083.533v-16.1Z" transform="translate(-851.451 -1250.794)" fill="#0d78ce"/>
        </g>
        <path id="路径_37" data-name="路径 37" d="M829.3,1264.271l1.125.218v-16.1l-1.125-.222Z" transform="translate(-823.048 -1247.633)" fill="#fff"/>
        <path id="路径_38" data-name="路径 38" d="M829.3,1247.042l1.083-.533,1.125.222-1.083.533Z" transform="translate(-823.048 -1246.509)" fill="#d3eafd"/>
        <path id="路径_39" data-name="路径 39" d="M833.879,1247.2v16.1l-1.083.533v-16.1Z" transform="translate(-825.423 -1246.978)" fill="#0d78ce"/>
        <path id="路径_40" data-name="路径 40" d="M829.3,1295.221v.978l32.917,6.352v-.981Z" transform="translate(-823.048 -1279.562)" fill="#fff"/>
        <path id="路径_41" data-name="路径 41" d="M918.477,1288.137l1.125.218v-16.1l-1.125-.222Z" transform="translate(-883.56 -1263.828)" fill="#fff"/>
        <path id="路径_42" data-name="路径 42" d="M918.477,1270.908l1.083-.532,1.125.222-1.083.532Z" transform="translate(-883.56 -1262.703)" fill="#d3eafd"/>
        <path id="路径_43" data-name="路径 43" d="M923.059,1271.067v16.1l-1.083.532v-16.1Z" transform="translate(-885.935 -1263.172)" fill="#0d78ce"/>
        <path id="路径_44" data-name="路径 44" d="M898.7,1267.092l1.083-.532,1.125.222-1.083.532Z" transform="translate(-870.139 -1260.114)" fill="#d3eafd"/>
        <path id="路径_45" data-name="路径 45" d="M819.578,1269.056l1.124.218v-16.1l-1.125-.222Z" transform="translate(-816.454 -1250.88)" fill="#fff"/>
        <path id="路径_46" data-name="路径 46" d="M819.578,1251.827l1.083-.532,1.125.222-1.083.533Z" transform="translate(-816.454 -1249.756)" fill="#d3eafd"/>
        <path id="路径_47" data-name="路径 47" d="M824.161,1251.985v16.1l-1.083.532v-16.1Z" transform="translate(-818.829 -1250.225)" fill="#0d78ce"/>
        <path id="路径_48" data-name="路径 48" d="M814.443,1303.8l-1.083.532,30.667,5.917v-.746Z" transform="translate(-812.235 -1285.385)" fill="#0d78ce"/>
        <path id="路径_49" data-name="路径 49" d="M908.759,1275.694l1.083-.533,1.125.222-1.083.532Z" transform="translate(-876.966 -1265.95)" fill="#d3eafd"/>
        <path id="路径_50" data-name="路径 50" d="M913.341,1275.852v16.1l-1.083.533v-16.1Z" transform="translate(-879.341 -1266.419)" fill="#0d78ce"/>
        <path id="路径_51" data-name="路径 51" d="M809.86,1273.841l1.125.218v-16.1l-1.125-.222Z" transform="translate(-809.86 -1254.127)" fill="#fff"/>
        <path id="路径_52" data-name="路径 52" d="M809.86,1256.612l1.083-.533,1.125.222-1.083.533Z" transform="translate(-809.86 -1253.003)" fill="#d3eafd"/>
        <path id="路径_53" data-name="路径 53" d="M814.443,1256.771v16.1l-1.083.533v-16.1Z" transform="translate(-812.235 -1253.472)" fill="#0d78ce"/>
        <path id="路径_54" data-name="路径 54" d="M809.86,1304.792v.978l32.917,6.352v-.981Z" transform="translate(-809.86 -1286.056)" fill="#fff"/>
        <path id="路径_55" data-name="路径 55" d="M813.361,1250.809l7.33-3.609v15.119l-7.33,3.609Z" transform="translate(-812.235 -1246.978)" fill="#0d78ce"/>
        <path id="路径_56" data-name="路径 56" d="M809.86,1250.119l1.125.222,7.33-3.609-1.125-.222Z" transform="translate(-809.86 -1246.509)" fill="#d3eafd"/>
        <path id="路径_57" data-name="路径 57" d="M813.361,1300.021l5.233,1.012v-3.588Z" transform="translate(-812.235 -1281.071)" fill="#005fa0"/>
        <path id="路径_58" data-name="路径 58" d="M834.223,1294.232l.916.2v5.025l-2-.387,1.083-.557Z" transform="translate(-825.657 -1278.891)" fill="#005fa0"/>
        <path id="路径_59" data-name="路径 59" d="M840.483,1298.848l1.083-.536v-2.14l.916.177v1.723l.111.021v3.3l-3.234-.624v-2.141Z" transform="translate(-829.876 -1280.207)" fill="#005fa0"/>
        <path id="路径_60" data-name="路径 60" d="M852.92,1302.928l1.083-.557v-4.259l.916.177v2.885l1.124.217,1.083-.558v-2.118l.916.176v.743l.111.021v4.283Z" transform="translate(-839.078 -1281.524)" fill="#005fa0"/>
        <path id="路径_61" data-name="路径 61" d="M872.7,1306.682l1.083-.586v-4.259l.916.177v2.885l1.125.217,1.083-.558v-2.118l.916.177v.743l.11.021v4.312Z" transform="translate(-852.498 -1284.05)" fill="#005fa0"/>
        <path id="路径_62" data-name="路径 62" d="M892.479,1310.558l1.083-.575v-4.24l.916.176v2.885l1.124.217,1.083-.558v-2.119l.916.177v1.725l.11.022v3.3Z" transform="translate(-865.92 -1286.701)" fill="#005fa0"/>
        <g id="组_12" data-name="组 12" transform="translate(28.558 6.668)">
          <path id="路径_63" data-name="路径 63" d="M898.7,1283.341l1.125.218v-15.121l-1.125-.222Z" transform="translate(-898.697 -1267.906)" fill="#fff"/>
          <path id="路径_64" data-name="路径 64" d="M903.28,1267.25v15.122l-1.083.532v-15.121Z" transform="translate(-901.072 -1267.25)" fill="#0d78ce"/>
        </g>
        <g id="组_13" data-name="组 13" transform="translate(22.199 5.219)">
          <path id="路径_65" data-name="路径 65" d="M878.917,1280.5l1.125.218v-16.1l-1.125-.222Z" transform="translate(-878.917 -1263.867)" fill="#fff"/>
          <path id="路径_66" data-name="路径 66" d="M878.917,1263.276l1.083-.532,1.125.222-1.083.532Z" transform="translate(-878.917 -1262.743)" fill="#d3eafd"/>
          <path id="路径_67" data-name="路径 67" d="M883.5,1263.434v16.1l-1.083.532v-16.1Z" transform="translate(-881.292 -1263.212)" fill="#0d78ce"/>
        </g>
        <g id="组_14" data-name="组 14" transform="translate(9.482 2.765)">
          <path id="路径_68" data-name="路径 68" d="M839.358,1272.872l1.125.218v-16.1l-1.125-.222Z" transform="translate(-839.358 -1256.235)" fill="#fff"/>
          <path id="路径_69" data-name="路径 69" d="M843.941,1255.774v16.1l-1.083.532v-16.1Z" transform="translate(-841.733 -1255.561)" fill="#0d78ce"/>
          <path id="路径_70" data-name="路径 70" d="M839.358,1255.643l1.083-.532,1.125.222-1.083.532Z" transform="translate(-839.358 -1255.111)" fill="#d3eafd"/>
        </g>
        <g id="组_15" data-name="组 15" transform="translate(15.841 3.992)">
          <path id="路径_71" data-name="路径 71" d="M859.138,1276.688l1.125.218v-16.1l-1.125-.222Z" transform="translate(-859.138 -1260.051)" fill="#fff"/>
          <path id="路径_72" data-name="路径 72" d="M859.138,1259.459l1.083-.532,1.125.222-1.083.532Z" transform="translate(-859.138 -1258.927)" fill="#d3eafd"/>
          <path id="路径_73" data-name="路径 73" d="M863.72,1259.618v16.1l-1.083.532v-16.1Z" transform="translate(-861.512 -1259.396)" fill="#0d78ce"/>
        </g>
        <g id="组_16" data-name="组 16" transform="translate(19.075 6.757)">
          <path id="路径_74" data-name="路径 74" d="M869.2,1285.29l1.125.218v-16.1l-1.125-.222Z" transform="translate(-869.199 -1268.653)" fill="#fff"/>
          <path id="路径_75" data-name="路径 75" d="M869.2,1268.061l1.083-.533,1.125.222-1.083.532Z" transform="translate(-869.199 -1267.528)" fill="#d3eafd"/>
          <path id="路径_76" data-name="路径 76" d="M873.782,1268.219v15.065l-1.083.557v-15.09Z" transform="translate(-871.574 -1267.997)" fill="#0d78ce"/>
        </g>
        <g id="组_17" data-name="组 17" transform="translate(12.717 5.53)">
          <path id="路径_77" data-name="路径 77" d="M849.42,1281.474l1.125.218v-16.1l-1.125-.222Z" transform="translate(-849.42 -1264.836)" fill="#fff"/>
          <path id="路径_78" data-name="路径 78" d="M849.42,1264.245l1.083-.533,1.125.222-1.083.532Z" transform="translate(-849.42 -1263.712)" fill="#d3eafd"/>
          <path id="路径_79" data-name="路径 79" d="M854,1264.4V1279.5l-1.083.557v-15.119Z" transform="translate(-851.795 -1264.181)" fill="#0d78ce"/>
        </g>
        <g id="组_18" data-name="组 18" transform="translate(6.358 4.303)">
          <path id="路径_80" data-name="路径 80" d="M829.64,1277.657l1.125.218v-16.1l-1.125-.222Z" transform="translate(-829.64 -1261.02)" fill="#fff"/>
          <path id="路径_81" data-name="路径 81" d="M829.64,1260.429l1.083-.533,1.125.222-1.083.533Z" transform="translate(-829.64 -1259.896)" fill="#d3eafd"/>
          <path id="路径_82" data-name="路径 82" d="M834.223,1260.587v15.095l-1.083.557v-15.119Z" transform="translate(-832.015 -1260.365)" fill="#0d78ce"/>
        </g>
        <path id="路径_83" data-name="路径 83" d="M908.759,1292.924l1.125.217v-16.1l-1.125-.222Z" transform="translate(-876.966 -1267.075)" fill="#fff"/>
        <path id="路径_84" data-name="路径 84" d="M912.257,1269.891l7.33-3.609v16.1l-7.331,3.609Z" transform="translate(-879.34 -1259.925)" fill="#0d78ce"/>
        <path id="路径_85" data-name="路径 85" d="M908.759,1269.2l7.331-3.609,1.125.221-7.33,3.61Z" transform="translate(-876.966 -1259.457)" fill="#d3eafd"/>
        <path id="路径_86" data-name="路径 86" d="M838.494,1319.552" transform="translate(-829.289 -1296.071)" fill="#fff"/>
        <g id="组_19" data-name="组 19" transform="translate(25.434 7.984)">
          <path id="路径_87" data-name="路径 87" d="M888.979,1289.106l1.125.218v-16.1l-1.125-.222Z" transform="translate(-888.979 -1272.469)" fill="#fff"/>
          <path id="路径_88" data-name="路径 88" d="M888.979,1271.878l1.083-.533,1.125.222-1.083.532Z" transform="translate(-888.979 -1271.345)" fill="#d3eafd"/>
          <path id="路径_89" data-name="路径 89" d="M893.562,1272.036v15.095l-1.083.557v-15.119Z" transform="translate(-891.354 -1271.814)" fill="#0d78ce"/>
        </g>
      </g>
    </g>
  </g>
</svg>
