<svg xmlns="http://www.w3.org/2000/svg" width="55" height="55" viewBox="0 0 55 55">
  <g id="组_51" data-name="组 51" transform="translate(-442 -1049)">
    <rect id="矩形_154" data-name="矩形 154" width="55" height="55" rx="4" transform="translate(442 1049)" fill="#0f8df2"/>
    <g id="组_48" data-name="组 48" transform="translate(449.376 1062.992)">
      <g id="组_45" data-name="组 45" transform="translate(0 0)">
        <g id="组_22" data-name="组 22" transform="translate(14.768 21.342)">
          <path id="路径_90" data-name="路径 90" d="M1040.66,1318.533l.13.025v-1.869l-.131-.026Z" transform="translate(-1040.66 -1315.453)" fill="#fff"/>
          <path id="路径_91" data-name="路径 91" d="M1040.66,1322.127v.113l1.959.38v-.114Z" transform="translate(-1040.66 -1319.16)" fill="#fff"/>
          <path id="路径_92" data-name="路径 92" d="M1041.066,1314.188l2.468-1.211v1.755l-2.468,1.211Z" transform="translate(-1040.935 -1312.952)" fill="#0d78ce"/>
          <path id="路径_93" data-name="路径 93" d="M1041.066,1320.445l1.7.331v-.583l-.005-.581Z" transform="translate(-1040.935 -1317.453)" fill="#005fa0"/>
          <path id="路径_94" data-name="路径 94" d="M1046.349,1319.637l.13.025v-1.869l-.131-.026Z" transform="translate(-1044.52 -1316.202)" fill="#fff"/>
          <path id="路径_95" data-name="路径 95" d="M1046.755,1315.433l2.3-1.144v1.869l-2.3,1.144Z" transform="translate(-1044.796 -1313.841)" fill="#0d78ce"/>
          <path id="路径_96" data-name="路径 96" d="M1046.349,1315.353l2.3-1.144.131.026-2.3,1.144Z" transform="translate(-1044.52 -1313.787)" fill="#d3eafd"/>
          <path id="路径_97" data-name="路径 97" d="M1040.66,1314.109l2.468-1.211.131.026-2.468,1.211Z" transform="translate(-1040.66 -1312.898)" fill="#d3eafd"/>
        </g>
        <path id="路径_98" data-name="路径 98" d="M1070.715,1326.133l2.069-1.018,2.151.425-2.07,1.018Z" transform="translate(-1046.285 -1299.846)" fill="#d3eafd"/>
        <path id="路径_99" data-name="路径 99" d="M1070.715,1322.7l1.006-2.644,1.125.215.019,2.853Z" transform="translate(-1046.285 -1296.415)" fill="#fff"/>
        <path id="路径_100" data-name="路径 100" d="M1079.433,1321.386l-2.069,1.018-.019-2.853,1.083-.557Z" transform="translate(-1050.784 -1295.693)" fill="#0d78ce"/>
        <path id="路径_101" data-name="路径 101" d="M1082.7,1331" transform="translate(-1054.416 -1303.841)" fill="#fff"/>
        <path id="路径_102" data-name="路径 102" d="M1011.37,1314.682l2.069-1.018,2.15.424-2.069,1.018Z" transform="translate(-1006.017 -1292.076)" fill="#d3eafd"/>
        <path id="路径_103" data-name="路径 103" d="M1011.37,1311.25l1.006-2.644,1.125.215.019,2.853Z" transform="translate(-1006.017 -1288.644)" fill="#fff"/>
        <path id="路径_104" data-name="路径 104" d="M1020.088,1309.935l-2.069,1.018L1018,1308.1l1.083-.557Z" transform="translate(-1010.515 -1287.923)" fill="#0d78ce"/>
        <path id="路径_105" data-name="路径 105" d="M1018.738,1294.232l-1.083.532,30.667,5.917v-.746Z" transform="translate(-1010.282 -1278.891)" fill="#0d78ce"/>
        <path id="路径_106" data-name="路径 106" d="M1113.053,1283.352l1.124.218v-16.1l-1.125-.222Z" transform="translate(-1075.013 -1260.581)" fill="#fff"/>
        <path id="路径_107" data-name="路径 107" d="M1113.053,1266.123l1.083-.532,1.125.222-1.083.533Z" transform="translate(-1075.013 -1259.456)" fill="#d3eafd"/>
        <path id="路径_108" data-name="路径 108" d="M1117.636,1266.281v16.1l-1.083.533v-16.1Z" transform="translate(-1077.388 -1259.925)" fill="#0d78ce"/>
        <g id="组_23" data-name="组 23" transform="translate(31.682 4.907)">
          <path id="路径_109" data-name="路径 109" d="M1093.273,1262.307l1.083-.533,1.125.222-1.083.532Z" transform="translate(-1093.273 -1261.774)" fill="#d3eafd"/>
          <path id="路径_110" data-name="路径 110" d="M1093.273,1279.536l1.125.218v-16.1l-1.125-.222Z" transform="translate(-1093.273 -1262.898)" fill="#fff"/>
          <path id="路径_111" data-name="路径 111" d="M1097.856,1262.465v16.1l-1.083.532V1263Z" transform="translate(-1095.648 -1262.243)" fill="#0d78ce"/>
        </g>
        <g id="组_24" data-name="组 24" transform="translate(25.323 3.68)">
          <path id="路径_112" data-name="路径 112" d="M1073.494,1275.719l1.125.218v-16.1l-1.125-.222Z" transform="translate(-1073.494 -1259.082)" fill="#fff"/>
          <path id="路径_113" data-name="路径 113" d="M1073.494,1258.49l1.083-.533,1.125.222-1.083.533Z" transform="translate(-1073.494 -1257.958)" fill="#d3eafd"/>
          <path id="路径_114" data-name="路径 114" d="M1078.076,1258.649v16.1l-1.083.533v-16.1Z" transform="translate(-1075.869 -1258.427)" fill="#0d78ce"/>
        </g>
        <g id="组_25" data-name="组 25" transform="translate(18.965 2.454)">
          <path id="路径_115" data-name="路径 115" d="M1053.714,1271.9l1.124.218v-16.1l-1.125-.222Z" transform="translate(-1053.714 -1255.266)" fill="#fff"/>
          <path id="路径_116" data-name="路径 116" d="M1053.714,1254.674l1.083-.533,1.125.222-1.083.532Z" transform="translate(-1053.714 -1254.142)" fill="#d3eafd"/>
          <path id="路径_117" data-name="路径 117" d="M1058.3,1254.832v16.1l-1.083.532v-16.1Z" transform="translate(-1056.089 -1254.61)" fill="#0d78ce"/>
        </g>
        <g id="组_26" data-name="组 26" transform="translate(12.606 1.227)">
          <path id="路径_118" data-name="路径 118" d="M1033.935,1268.087l1.124.218v-16.1l-1.125-.222Z" transform="translate(-1033.935 -1251.449)" fill="#fff"/>
          <path id="路径_119" data-name="路径 119" d="M1033.935,1250.858l1.083-.533,1.125.222-1.083.532Z" transform="translate(-1033.935 -1250.325)" fill="#d3eafd"/>
          <path id="路径_120" data-name="路径 120" d="M1038.517,1251.016v16.1l-1.083.533v-16.1Z" transform="translate(-1036.309 -1250.794)" fill="#0d78ce"/>
        </g>
        <path id="路径_121" data-name="路径 121" d="M1014.155,1264.27l1.124.218v-16.1l-1.125-.222Z" transform="translate(-1007.907 -1247.633)" fill="#fff"/>
        <path id="路径_122" data-name="路径 122" d="M1014.155,1247.042l1.083-.533,1.125.222-1.083.533Z" transform="translate(-1007.907 -1246.509)" fill="#d3eafd"/>
        <path id="路径_123" data-name="路径 123" d="M1018.738,1247.2v16.1l-1.083.532v-16.1Z" transform="translate(-1010.282 -1246.978)" fill="#0d78ce"/>
        <path id="路径_124" data-name="路径 124" d="M1014.155,1295.221v.978l32.917,6.352v-.981Z" transform="translate(-1007.907 -1279.562)" fill="#fff"/>
        <path id="路径_125" data-name="路径 125" d="M1103.335,1288.137l1.125.218v-16.1l-1.125-.222Z" transform="translate(-1068.419 -1263.828)" fill="#fff"/>
        <path id="路径_126" data-name="路径 126" d="M1103.335,1270.908l1.083-.533,1.125.222-1.083.533Z" transform="translate(-1068.419 -1262.703)" fill="#d3eafd"/>
        <path id="路径_127" data-name="路径 127" d="M1107.918,1271.067v16.1l-1.083.533v-16.1Z" transform="translate(-1070.794 -1263.172)" fill="#0d78ce"/>
        <path id="路径_128" data-name="路径 128" d="M1083.556,1267.092l1.083-.532,1.125.222-1.083.532Z" transform="translate(-1054.998 -1260.114)" fill="#d3eafd"/>
        <path id="路径_129" data-name="路径 129" d="M1004.437,1269.056l1.124.218v-16.1l-1.125-.222Z" transform="translate(-1001.313 -1250.88)" fill="#fff"/>
        <path id="路径_130" data-name="路径 130" d="M1004.437,1251.827l1.083-.533,1.125.222-1.083.533Z" transform="translate(-1001.313 -1249.756)" fill="#d3eafd"/>
        <path id="路径_131" data-name="路径 131" d="M1009.02,1251.985v16.1l-1.083.533v-16.1Z" transform="translate(-1003.688 -1250.225)" fill="#0d78ce"/>
        <path id="路径_132" data-name="路径 132" d="M999.3,1303.8l-1.083.533,30.667,5.917v-.746Z" transform="translate(-997.094 -1285.385)" fill="#0d78ce"/>
        <path id="路径_133" data-name="路径 133" d="M1093.618,1275.693l1.083-.532,1.125.222-1.083.533Z" transform="translate(-1061.825 -1265.95)" fill="#d3eafd"/>
        <path id="路径_134" data-name="路径 134" d="M1098.2,1275.852v16.1l-1.083.533v-16.1Z" transform="translate(-1064.2 -1266.419)" fill="#0d78ce"/>
        <path id="路径_135" data-name="路径 135" d="M994.719,1273.841l1.124.218v-16.1l-1.125-.222Z" transform="translate(-994.719 -1254.127)" fill="#fff"/>
        <path id="路径_136" data-name="路径 136" d="M994.719,1256.612l1.083-.533,1.125.222-1.083.533Z" transform="translate(-994.719 -1253.003)" fill="#d3eafd"/>
        <path id="路径_137" data-name="路径 137" d="M999.3,1256.771v16.1l-1.083.533v-16.1Z" transform="translate(-997.094 -1253.472)" fill="#0d78ce"/>
        <path id="路径_138" data-name="路径 138" d="M994.719,1304.792v.978l32.917,6.352v-.981Z" transform="translate(-994.719 -1286.056)" fill="#fff"/>
        <path id="路径_139" data-name="路径 139" d="M998.219,1250.809l7.33-3.609v15.119l-7.33,3.609Z" transform="translate(-997.094 -1246.978)" fill="#0d78ce"/>
        <path id="路径_140" data-name="路径 140" d="M994.719,1250.118l1.125.222,7.331-3.609-1.125-.222Z" transform="translate(-994.719 -1246.509)" fill="#d3eafd"/>
        <path id="路径_141" data-name="路径 141" d="M998.219,1300.021l5.233,1.011v-3.588Z" transform="translate(-997.094 -1281.071)" fill="#005fa0"/>
        <path id="路径_142" data-name="路径 142" d="M1019.082,1294.232l.916.2v5.025l-2-.387,1.083-.557Z" transform="translate(-1010.515 -1278.891)" fill="#005fa0"/>
        <path id="路径_143" data-name="路径 143" d="M1025.342,1298.848l1.083-.535v-2.141l.916.177v1.722l.111.021v3.3l-3.234-.624v-2.141Z" transform="translate(-1014.734 -1280.207)" fill="#005fa0"/>
        <path id="路径_144" data-name="路径 144" d="M1037.779,1302.928l1.083-.557v-4.259l.916.177v2.885l1.125.217,1.083-.558v-2.118l.916.177v.743l.111.021v4.283Z" transform="translate(-1023.937 -1281.523)" fill="#005fa0"/>
        <path id="路径_145" data-name="路径 145" d="M1057.556,1306.681l1.083-.586v-4.259l.916.177v2.885l1.125.217,1.083-.558v-2.118l.916.177v.743l.111.021v4.312Z" transform="translate(-1037.356 -1284.05)" fill="#005fa0"/>
        <path id="路径_146" data-name="路径 146" d="M1077.338,1310.558l1.083-.575v-4.241l.916.177v2.885l1.125.217,1.083-.558v-2.119l.916.177v1.725l.111.021v3.3Z" transform="translate(-1050.779 -1286.701)" fill="#005fa0"/>
        <g id="组_31" data-name="组 31" transform="translate(9.047 3.47)">
          <g id="组_27" data-name="组 27" transform="translate(0.158 7.175)">
            <path id="路径_147" data-name="路径 147" d="M1023.352,1281.39l21.885,4.2v2.535l-21.885-4.2Z" transform="translate(-1023.352 -1280.821)" fill="#161616" stroke="#fff" stroke-linejoin="round" stroke-width="0.1"/>
            <path id="路径_148" data-name="路径 148" d="M1023.352,1280.19l1.155-.568,21.885,4.2-1.154.568Z" transform="translate(-1023.352 -1279.622)" fill="#161616" stroke="#fff" stroke-linejoin="round" stroke-width="0.1"/>
            <path id="路径_149" data-name="路径 149" d="M1092.587,1292.675v2.535l-1.154.568v-2.535Z" transform="translate(-1069.547 -1288.479)" fill="#161616" stroke="#fff" stroke-linejoin="round" stroke-width="0.1"/>
          </g>
          <g id="组_28" data-name="组 28" transform="translate(0 3.57)">
            <path id="路径_150" data-name="路径 150" d="M1022.861,1270.175l21.885,4.2v2.535l-21.885-4.2Z" transform="translate(-1022.861 -1269.607)" fill="#161616" stroke="#fff" stroke-linejoin="round" stroke-width="0.1"/>
            <path id="路径_151" data-name="路径 151" d="M1022.861,1268.976l1.154-.568,21.886,4.2-1.155.568Z" transform="translate(-1022.861 -1268.407)" fill="#161616" stroke="#fff" stroke-linejoin="round" stroke-width="0.1"/>
            <path id="路径_152" data-name="路径 152" d="M1092.1,1281.46V1284l-1.154.568v-2.535Z" transform="translate(-1069.056 -1277.264)" fill="#161616" stroke="#fff" stroke-linejoin="round" stroke-width="0.1"/>
          </g>
          <g id="组_29" data-name="组 29">
            <path id="路径_153" data-name="路径 153" d="M1022.861,1259.071l21.885,4.2v2.535l-21.885-4.2Z" transform="translate(-1022.861 -1258.502)" fill="#161616" stroke="#fff" stroke-linejoin="round" stroke-width="0.1"/>
            <path id="路径_154" data-name="路径 154" d="M1022.861,1257.871l1.154-.568,21.886,4.2-1.155.568Z" transform="translate(-1022.861 -1257.303)" fill="#161616" stroke="#fff" stroke-linejoin="round" stroke-width="0.1"/>
            <path id="路径_155" data-name="路径 155" d="M1092.1,1270.356v2.535l-1.154.568v-2.535Z" transform="translate(-1069.056 -1266.16)" fill="#161616" stroke="#fff" stroke-linejoin="round" stroke-width="0.1"/>
          </g>
          <g id="组_30" data-name="组 30" transform="translate(0 10.709)">
            <path id="路径_156" data-name="路径 156" d="M1022.861,1292.384l21.885,4.2v2.535l-21.885-4.2Z" transform="translate(-1022.861 -1291.815)" fill="#161616" stroke="#fff" stroke-linejoin="round" stroke-width="0.1"/>
            <path id="路径_157" data-name="路径 157" d="M1022.861,1291.184l1.154-.568,21.886,4.2-1.155.568Z" transform="translate(-1022.861 -1290.616)" fill="#161616" stroke="#fff" stroke-linejoin="round" stroke-width="0.1"/>
            <path id="路径_158" data-name="路径 158" d="M1092.1,1303.669v2.536l-1.154.568v-2.535Z" transform="translate(-1069.056 -1299.473)" fill="#161616" stroke="#fff" stroke-linejoin="round" stroke-width="0.1"/>
          </g>
        </g>
        <g id="组_32" data-name="组 32" transform="translate(28.558 6.668)">
          <path id="路径_159" data-name="路径 159" d="M1083.556,1283.342l1.125.218v-15.121l-1.125-.222Z" transform="translate(-1083.556 -1267.906)" fill="#fff"/>
          <path id="路径_160" data-name="路径 160" d="M1088.138,1267.25v15.121l-1.083.532v-15.121Z" transform="translate(-1085.931 -1267.25)" fill="#0d78ce"/>
        </g>
        <g id="组_33" data-name="组 33" transform="translate(22.199 5.219)">
          <path id="路径_161" data-name="路径 161" d="M1063.776,1280.5l1.124.218v-16.1l-1.125-.222Z" transform="translate(-1063.776 -1263.867)" fill="#fff"/>
          <path id="路径_162" data-name="路径 162" d="M1063.776,1263.276l1.083-.533,1.125.222-1.083.533Z" transform="translate(-1063.776 -1262.743)" fill="#d3eafd"/>
          <path id="路径_163" data-name="路径 163" d="M1068.359,1263.434v16.1l-1.083.532v-16.1Z" transform="translate(-1066.151 -1263.212)" fill="#0d78ce"/>
        </g>
        <g id="组_34" data-name="组 34" transform="translate(9.482 2.765)">
          <path id="路径_164" data-name="路径 164" d="M1024.217,1272.872l1.124.218v-16.1l-1.125-.222Z" transform="translate(-1024.217 -1256.235)" fill="#fff"/>
          <path id="路径_165" data-name="路径 165" d="M1028.8,1255.774v16.1l-1.083.532v-16.1Z" transform="translate(-1026.592 -1255.561)" fill="#0d78ce"/>
          <path id="路径_166" data-name="路径 166" d="M1024.217,1255.643l1.083-.533,1.125.222-1.083.533Z" transform="translate(-1024.217 -1255.111)" fill="#d3eafd"/>
        </g>
        <g id="组_35" data-name="组 35" transform="translate(15.841 3.992)">
          <path id="路径_167" data-name="路径 167" d="M1044,1276.688l1.125.218v-16.1l-1.125-.222Z" transform="translate(-1043.996 -1260.051)" fill="#fff"/>
          <path id="路径_168" data-name="路径 168" d="M1044,1259.46l1.083-.533,1.125.222-1.083.533Z" transform="translate(-1043.996 -1258.927)" fill="#d3eafd"/>
          <path id="路径_169" data-name="路径 169" d="M1048.579,1259.618v16.1l-1.083.533v-16.1Z" transform="translate(-1046.371 -1259.396)" fill="#0d78ce"/>
        </g>
        <g id="组_40" data-name="组 40" transform="translate(6.434 5.064)">
          <g id="组_36" data-name="组 36" transform="translate(0 10.709)">
            <path id="路径_170" data-name="路径 170" d="M1014.735,1297.344l21.673,4.154v2.535l-21.673-4.153Z" transform="translate(-1014.735 -1296.775)" fill="#161616" stroke="#fff" stroke-linejoin="round" stroke-width="0.1"/>
            <path id="路径_171" data-name="路径 171" d="M1014.735,1296.144l1.154-.569,21.673,4.154-1.154.568Z" transform="translate(-1014.735 -1295.576)" fill="#161616" stroke="#fff" stroke-linejoin="round" stroke-width="0.1"/>
            <path id="路径_172" data-name="路径 172" d="M1083.31,1308.5v2.535l-1.155.568v-2.535Z" transform="translate(-1060.482 -1304.343)" fill="#161616" stroke="#fff" stroke-linejoin="round" stroke-width="0.1"/>
          </g>
          <g id="组_37" data-name="组 37" transform="translate(0 7.139)">
            <path id="路径_173" data-name="路径 173" d="M1014.735,1286.24l21.673,4.154v2.535l-21.673-4.153Z" transform="translate(-1014.735 -1285.671)" fill="#161616" stroke="#fff" stroke-linejoin="round" stroke-width="0.1"/>
            <path id="路径_174" data-name="路径 174" d="M1014.735,1285.04l1.154-.568,21.673,4.154-1.154.568Z" transform="translate(-1014.735 -1284.471)" fill="#161616" stroke="#fff" stroke-linejoin="round" stroke-width="0.1"/>
            <path id="路径_175" data-name="路径 175" d="M1083.31,1297.392v2.535l-1.155.568v-2.535Z" transform="translate(-1060.482 -1293.238)" fill="#161616" stroke="#fff" stroke-linejoin="round" stroke-width="0.1"/>
          </g>
          <g id="组_38" data-name="组 38" transform="translate(0 3.57)">
            <path id="路径_176" data-name="路径 176" d="M1014.735,1275.135l21.673,4.153v2.535l-21.673-4.153Z" transform="translate(-1014.735 -1274.567)" fill="#161616" stroke="#fff" stroke-linejoin="round" stroke-width="0.1"/>
            <path id="路径_177" data-name="路径 177" d="M1014.735,1273.936l1.154-.568,21.673,4.154-1.154.568Z" transform="translate(-1014.735 -1273.367)" fill="#161616" stroke="#fff" stroke-linejoin="round" stroke-width="0.1"/>
            <path id="路径_178" data-name="路径 178" d="M1083.31,1286.288v2.536l-1.155.568v-2.535Z" transform="translate(-1060.482 -1282.134)" fill="#161616" stroke="#fff" stroke-linejoin="round" stroke-width="0.1"/>
          </g>
          <g id="组_39" data-name="组 39">
            <path id="路径_179" data-name="路径 179" d="M1014.735,1264.031l21.673,4.153v2.535l-21.673-4.153Z" transform="translate(-1014.735 -1263.463)" fill="#161616" stroke="#fff" stroke-linejoin="round" stroke-width="0.1"/>
            <path id="路径_180" data-name="路径 180" d="M1014.735,1262.831l1.154-.568,21.673,4.153-1.154.568Z" transform="translate(-1014.735 -1262.263)" fill="#161616" stroke="#fff" stroke-linejoin="round" stroke-width="0.1"/>
            <path id="路径_181" data-name="路径 181" d="M1083.31,1275.183v2.535l-1.155.569v-2.536Z" transform="translate(-1060.482 -1271.03)" fill="#161616" stroke="#fff" stroke-linejoin="round" stroke-width="0.1"/>
          </g>
        </g>
        <g id="组_41" data-name="组 41" transform="translate(19.075 6.757)">
          <path id="路径_182" data-name="路径 182" d="M1054.058,1285.29l1.125.218v-16.1l-1.125-.222Z" transform="translate(-1054.058 -1268.653)" fill="#fff"/>
          <path id="路径_183" data-name="路径 183" d="M1054.058,1268.061l1.083-.533,1.125.222-1.083.532Z" transform="translate(-1054.058 -1267.528)" fill="#d3eafd"/>
          <path id="路径_184" data-name="路径 184" d="M1058.641,1268.219v15.065l-1.083.557v-15.09Z" transform="translate(-1056.433 -1267.997)" fill="#0d78ce"/>
        </g>
        <g id="组_42" data-name="组 42" transform="translate(12.717 5.53)">
          <path id="路径_185" data-name="路径 185" d="M1034.279,1281.474l1.124.218v-16.1l-1.125-.222Z" transform="translate(-1034.279 -1264.836)" fill="#fff"/>
          <path id="路径_186" data-name="路径 186" d="M1034.279,1264.245l1.083-.533,1.125.222-1.083.533Z" transform="translate(-1034.279 -1263.712)" fill="#d3eafd"/>
          <path id="路径_187" data-name="路径 187" d="M1038.861,1264.4V1279.5l-1.083.557v-15.119Z" transform="translate(-1036.654 -1264.181)" fill="#0d78ce"/>
        </g>
        <g id="组_43" data-name="组 43" transform="translate(6.358 4.303)">
          <path id="路径_188" data-name="路径 188" d="M1014.5,1277.657l1.124.218v-16.1l-1.125-.222Z" transform="translate(-1014.499 -1261.02)" fill="#fff"/>
          <path id="路径_189" data-name="路径 189" d="M1014.5,1260.428l1.083-.533,1.125.222-1.083.533Z" transform="translate(-1014.499 -1259.896)" fill="#d3eafd"/>
          <path id="路径_190" data-name="路径 190" d="M1019.082,1260.587v15.095l-1.083.557V1261.12Z" transform="translate(-1016.874 -1260.365)" fill="#0d78ce"/>
        </g>
        <path id="路径_191" data-name="路径 191" d="M1093.618,1292.923l1.124.217v-16.1l-1.125-.222Z" transform="translate(-1061.825 -1267.074)" fill="#fff"/>
        <path id="路径_192" data-name="路径 192" d="M1097.116,1269.89l7.331-3.609v16.1l-7.331,3.609Z" transform="translate(-1064.199 -1259.925)" fill="#0d78ce"/>
        <path id="路径_193" data-name="路径 193" d="M1093.618,1269.2l7.331-3.609,1.125.222-7.331,3.609Z" transform="translate(-1061.825 -1259.456)" fill="#d3eafd"/>
        <path id="路径_194" data-name="路径 194" d="M1023.353,1319.552" transform="translate(-1014.148 -1296.072)" fill="#fff"/>
        <g id="组_44" data-name="组 44" transform="translate(25.434 7.984)">
          <path id="路径_195" data-name="路径 195" d="M1073.838,1289.106l1.125.218v-16.1l-1.125-.222Z" transform="translate(-1073.838 -1272.469)" fill="#fff"/>
          <path id="路径_196" data-name="路径 196" d="M1073.838,1271.877l1.083-.533,1.125.222-1.083.533Z" transform="translate(-1073.838 -1271.345)" fill="#d3eafd"/>
          <path id="路径_197" data-name="路径 197" d="M1078.421,1272.036v15.095l-1.083.557v-15.119Z" transform="translate(-1076.213 -1271.814)" fill="#0d78ce"/>
        </g>
      </g>
    </g>
  </g>
</svg>
