<svg xmlns="http://www.w3.org/2000/svg" xmlns:xlink="http://www.w3.org/1999/xlink" width="55" height="55" viewBox="0 0 55 55">
  <defs>
    <clipPath id="clip-path">
      <rect id="SVGID" width="55" height="55" rx="4" transform="translate(1145.968 1224.485)" fill="none"/>
    </clipPath>
  </defs>
  <g id="组_66" data-name="组 66" transform="translate(-876 -763)">
    <rect id="矩形_189" data-name="矩形 189" width="55" height="55" rx="4" transform="translate(876 763)" fill="#0f8df2"/>
    <g id="组_71" data-name="组 71" transform="translate(-269.968 -461.485)">
      <g id="组_70" data-name="组 70" clip-path="url(#clip-path)">
        <g id="组_69" data-name="组 69">
          <path id="路径_284" data-name="路径 284" d="M1200.4,1241.069v16.273l-19.336-11.2-.219-16.15.219-.124Z" fill="#f70b0b" stroke="#000" stroke-linejoin="round" stroke-width="0.095"/>
          <path id="路径_285" data-name="路径 285" d="M1200.186,1241.193v16.273l-19.336-11.2v-16.273Z" fill="#f70b0b" stroke="#000" stroke-linejoin="round" stroke-width="0.095"/>
          <path id="路径_286" data-name="路径 286" d="M1177.3,1249.526l.252.171,4.484-2.906.252-16.016-.273-.159-1.855,1.071c-1.58.912-2.86,5.314-2.86,11.577Z" fill="#f70b0b" stroke="#000" stroke-linejoin="round" stroke-width="0.095"/>
          <path id="路径_287" data-name="路径 287" d="M1177.551,1249.7l4.736-2.734v-16.188l-1.876,1.083c-1.579.912-2.86,5.315-2.86,11.577Z" fill="#f70b0b" stroke="#000" stroke-linejoin="round" stroke-width="0.095"/>
          <g id="组_68" data-name="组 68">
            <path id="路径_288" data-name="路径 288" d="M1183.1,1249.372l1.1,1.12.412-.245V1205.2l-1.516-.875-.412.245Z" stroke="#fff" stroke-linejoin="round" stroke-width="0.095"/>
            <path id="路径_289" data-name="路径 289" d="M1182.684,1249.617l1.516.875v-45.046l-1.516-.875Z" stroke="#fff" stroke-linejoin="round" stroke-width="0.095"/>
            <path id="路径_290" data-name="路径 290" d="M1180.975,1251.164l2.219-1.273.419-44.794-.419-.252-2.219,1.274Z" stroke="#fff" stroke-linejoin="round" stroke-width="0.095"/>
            <path id="路径_291" data-name="路径 291" d="M1181.393,1251.417l2.219-1.274V1205.1l-2.219,1.273Z" stroke="#fff" stroke-linejoin="round" stroke-width="0.095"/>
            <path id="路径_292" data-name="路径 292" d="M1180.477,1250.881l1.1,1.12.412-.245V1206.71l-1.516-.875-.412.245Z" stroke="#fff" stroke-linejoin="round" stroke-width="0.095"/>
            <path id="路径_293" data-name="路径 293" d="M1180.065,1251.127l1.516.875v-45.41l-1.516-.875Z" stroke="#fff" stroke-linejoin="round" stroke-width="0.095"/>
            <path id="路径_294" data-name="路径 294" d="M1177.442,1253.165l3.092-1.786.419-6.2-.419-.252-3.092,3.428Z" stroke="#fff" stroke-linejoin="round" stroke-width="0.095"/>
            <path id="路径_295" data-name="路径 295" d="M1177.86,1253.417l3.092-1.786v-6.449l-3.092,3.428Z" stroke="#fff" stroke-linejoin="round" stroke-width="0.095"/>
            <path id="路径_296" data-name="路径 296" d="M1183.986,1208.527l-1.052.625.283,1.575.769-.336Z" stroke="#fff" stroke-linejoin="round" stroke-width="0.095"/>
            <path id="路径_297" data-name="路径 297" d="M1183.886,1209.01l-.422-.168v-2.881l.422,1.223Z" stroke="#fff" stroke-linejoin="round" stroke-width="0.095"/>
            <path id="路径_298" data-name="路径 298" d="M1184.9,1205.039l-.347-.214-1.619.948.283,1.613,1-.424.682.481Z" stroke="#fff" stroke-linejoin="round" stroke-width="0.095"/>
            <path id="路径_299" data-name="路径 299" d="M1183.281,1209.366l-.347-.214v1.56l.347.2Z" stroke="#fff" stroke-linejoin="round" stroke-width="0.095"/>
            <path id="路径_300" data-name="路径 300" d="M1184.9,1205.039l-1.619.948v1.578l.6-.332v1.777l-.6.355v1.544l2.065-1.184v-4.944Z" stroke="#fff" stroke-linejoin="round" stroke-width="0.095"/>
            <path id="路径_301" data-name="路径 301" d="M1183.281,1205.987l-.347-.214v1.593l.347.2Z" stroke="#fff" stroke-linejoin="round" stroke-width="0.095"/>
            <path id="路径_302" data-name="路径 302" d="M1181.628,1205.178l2.207-1.274,1.516.511v.364l-3.723,2.149Z" stroke="#fff" stroke-linejoin="round" stroke-width="0.095"/>
            <path id="路径_303" data-name="路径 303" d="M1180.065,1205.716l1.516.875,3.77-2.177-1.516-.875Z" stroke="#fff" stroke-linejoin="round" stroke-width="0.095"/>
            <path id="路径_304" data-name="路径 304" d="M1182.932,1206.179l13.465,7.774v1.776l-13.465-7.774-.314-1.6Z" stroke="#fff" stroke-linejoin="round" stroke-width="0.095"/>
            <path id="路径_305" data-name="路径 305" d="M1196.4,1214.306v1.776l-13.779-7.956v-1.776Z" stroke="#fff" stroke-linejoin="round" stroke-width="0.095"/>
            <path id="路径_306" data-name="路径 306" d="M1182.932,1209.144l13.465,7.774v1.776l-13.465-7.774-.314-1.6Z" stroke="#fff" stroke-linejoin="round" stroke-width="0.095"/>
            <path id="路径_307" data-name="路径 307" d="M1196.4,1217.271v1.776l-13.779-7.956v-1.775Z" stroke="#fff" stroke-linejoin="round" stroke-width="0.095"/>
            <path id="路径_308" data-name="路径 308" d="M1196.005,1256.655l1.1,1.12.412-.245v-45.046l-1.516-.875-.412.245Z" stroke="#fff" stroke-linejoin="round" stroke-width="0.095"/>
            <path id="路径_309" data-name="路径 309" d="M1195.594,1256.9l1.516.875v-45.046l-1.516-.875Z" stroke="#fff" stroke-linejoin="round" stroke-width="0.095"/>
            <path id="路径_310" data-name="路径 310" d="M1193.884,1258.447l2.219-1.274.419-44.794-.419-.252-2.219,1.273Z" stroke="#fff" stroke-linejoin="round" stroke-width="0.095"/>
            <path id="路径_311" data-name="路径 311" d="M1194.3,1258.7l2.219-1.273V1212.38l-2.219,1.274Z" stroke="#fff" stroke-linejoin="round" stroke-width="0.095"/>
            <path id="路径_312" data-name="路径 312" d="M1193.387,1258.164l1.1,1.12.412-.245v-45.046l-1.516-.875-.412.245Z" stroke="#fff" stroke-linejoin="round" stroke-width="0.095"/>
            <path id="路径_313" data-name="路径 313" d="M1192.975,1258.409l1.516.875v-45.41l-1.516-.875Z" stroke="#fff" stroke-linejoin="round" stroke-width="0.095"/>
            <path id="路径_314" data-name="路径 314" d="M1190.351,1260.448l3.092-1.786.419-6.2-.419-.252-3.092,3.428Z" stroke="#fff" stroke-linejoin="round" stroke-width="0.095"/>
            <path id="路径_315" data-name="路径 315" d="M1190.77,1260.7l3.092-1.786v-6.449l-3.092,3.428Z" stroke="#fff" stroke-linejoin="round" stroke-width="0.095"/>
            <path id="路径_316" data-name="路径 316" d="M1196.895,1215.823l-1.052.611.283,1.575.769-.336Z" stroke="#fff" stroke-linejoin="round" stroke-width="0.095"/>
            <path id="路径_317" data-name="路径 317" d="M1196.8,1216.293l-.422-.168v-2.881l.422,1.223Z" stroke="#fff" stroke-linejoin="round" stroke-width="0.095"/>
            <path id="路径_318" data-name="路径 318" d="M1197.809,1212.322l-.347-.214-1.619.948.283,1.613,1-.424.682.481Z" stroke="#fff" stroke-linejoin="round" stroke-width="0.095"/>
            <path id="路径_319" data-name="路径 319" d="M1196.19,1216.648l-.347-.214v1.56l.347.2Z" stroke="#fff" stroke-linejoin="round" stroke-width="0.095"/>
            <path id="路径_320" data-name="路径 320" d="M1197.809,1212.322l-1.619.948v1.578l.6-.332v1.777l-.6.355v1.544l2.065-1.184v-4.944Z" stroke="#fff" stroke-linejoin="round" stroke-width="0.095"/>
            <path id="路径_321" data-name="路径 321" d="M1196.19,1213.27l-.347-.214v1.593l.347.2Z" stroke="#fff" stroke-linejoin="round" stroke-width="0.095"/>
            <path id="路径_322" data-name="路径 322" d="M1194.537,1212.461l2.207-1.274,1.516.511v.364l-3.723,2.149Z" stroke="#fff" stroke-linejoin="round" stroke-width="0.095"/>
            <path id="路径_323" data-name="路径 323" d="M1192.975,1213l1.516.875,3.77-2.176-1.516-.875Z" stroke="#fff" stroke-linejoin="round" stroke-width="0.095"/>
            <path id="路径_324" data-name="路径 324" d="M1169.509,1272.026l-3.193.794v.673l1.837.474Z" stroke="#fff" stroke-linejoin="round" stroke-width="0.095"/>
            <path id="路径_325" data-name="路径 325" d="M1156.651,1264.393l-2.217,1.417v.658l.861-.134Z" stroke="#fff" stroke-linejoin="round" stroke-width="0.095"/>
            <path id="路径_326" data-name="路径 326" d="M1177.211,1254.693l2.02-.16v-21.807l-2.591-1.487-.608.356Z" stroke="#fff" stroke-linejoin="round" stroke-width="0.095"/>
            <path id="路径_327" data-name="路径 327" d="M1154.67,1266.887a.47.47,0,0,1-.037-.79c1.815-1.3,3.918-2.636,5.433-3.509l16.593-9.556,2.571,1.5-16.058,9.245c-1.922,1.107-4.46,2.431-6.825,3.528a1.117,1.117,0,0,1-1.027-.045Z" stroke="#fff" stroke-linejoin="round" stroke-width="0.095"/>
            <path id="路径_328" data-name="路径 328" d="M1160.066,1261.913l16.593-9.557,1.965,1.85-15.452,8.9c-1.922,1.107-4.46,2.432-6.825,3.529a1.12,1.12,0,0,1-1.027-.046l-.65-.375a.469.469,0,0,1-.037-.789C1156.448,1264.126,1158.551,1262.786,1160.066,1261.913Z" stroke="#fff" stroke-linejoin="round" stroke-width="0.095"/>
            <path id="路径_329" data-name="路径 329" d="M1179.233,1236.279l10.05,5.791.708,2.894-11.2-6.452v-1.977Z" stroke="#fff" stroke-linejoin="round" stroke-width="0.095"/>
            <path id="路径_330" data-name="路径 330" d="M1178.8,1236.534l11.2,6.445v3.3l-11.2-6.445Z" stroke="#fff" stroke-linejoin="round" stroke-width="0.095"/>
            <path id="路径_331" data-name="路径 331" d="M1179.233,1243.832l10.05,5.791.708,2.894-11.2-6.452v-1.977Z" stroke="#fff" stroke-linejoin="round" stroke-width="0.095"/>
            <path id="路径_332" data-name="路径 332" d="M1178.8,1244.087l11.2,6.445v3.3l-11.2-6.445Z" stroke="#fff" stroke-linejoin="round" stroke-width="0.095"/>
            <path id="路径_333" data-name="路径 333" d="M1189.093,1261.717l2.02-.161V1239.75l-2.591-1.487-.608.356Z" stroke="#fff" stroke-linejoin="round" stroke-width="0.095"/>
            <path id="路径_334" data-name="路径 334" d="M1166.551,1273.911a.47.47,0,0,1-.037-.79c1.816-1.3,3.918-2.636,5.434-3.509l16.592-9.556,2.571,1.5-16.058,9.245c-1.922,1.106-4.46,2.431-6.825,3.528a1.113,1.113,0,0,1-1.027-.046Z" stroke="#fff" stroke-linejoin="round" stroke-width="0.095"/>
            <path id="路径_335" data-name="路径 335" d="M1171.948,1268.936l16.592-9.556,1.965,1.85-15.452,8.9c-1.922,1.107-4.46,2.432-6.825,3.529a1.119,1.119,0,0,1-1.027-.046l-.65-.375a.469.469,0,0,1-.037-.789C1168.33,1271.15,1170.432,1269.809,1171.948,1268.936Z" stroke="#fff" stroke-linejoin="round" stroke-width="0.095"/>
            <path id="路径_336" data-name="路径 336" d="M1187.914,1259.743l2.591,1.487v-21.125l-2.591-1.487Z" stroke="#fff" stroke-linejoin="round" stroke-width="0.095"/>
            <path id="路径_337" data-name="路径 337" d="M1175.425,1223.193a1.714,1.714,0,0,1,1.64,0l15.147,8.745a3,3,0,0,1,1.495,2.59v10.31a1.756,1.756,0,0,1-.82,1.42,1.223,1.223,0,0,1-.74.3,2.056,2.056,0,0,1-.9-.3l-.5-.289v-.915l.9.518a.847.847,0,0,0,1.271-.734v-10.31a2.2,2.2,0,0,0-1.1-1.9l-15.147-8.746a.848.848,0,0,0-1.271.734v10.31a2.2,2.2,0,0,0,.653,1.562v1a3,3,0,0,1-1.445-2.559l-.066-10.5A1.4,1.4,0,0,1,1175.425,1223.193Z" stroke="#fff" stroke-linejoin="round" stroke-width="0.095"/>
            <path id="路径_338" data-name="路径 338" d="M1192.9,1239.166l.4-.686-17.9-10.331-.358.213-.214.371Z" stroke="#fff" stroke-linejoin="round" stroke-width="0.095"/>
            <rect id="矩形_198" data-name="矩形 198" width="0.475" height="5.695" transform="translate(1176.798 1224.027)" stroke="#fff" stroke-linejoin="round" stroke-width="0.095"/>
            <rect id="矩形_199" data-name="矩形 199" width="0.475" height="5.694" transform="translate(1178.832 1225.202)" stroke="#fff" stroke-linejoin="round" stroke-width="0.095"/>
            <rect id="矩形_200" data-name="矩形 200" width="0.475" height="5.695" transform="translate(1180.866 1226.377)" stroke="#fff" stroke-linejoin="round" stroke-width="0.095"/>
            <rect id="矩形_201" data-name="矩形 201" width="0.475" height="5.695" transform="translate(1182.901 1227.551)" stroke="#fff" stroke-linejoin="round" stroke-width="0.095"/>
            <rect id="矩形_202" data-name="矩形 202" width="0.475" height="5.694" transform="translate(1184.935 1228.726)" stroke="#fff" stroke-linejoin="round" stroke-width="0.095"/>
            <rect id="矩形_203" data-name="矩形 203" width="0.475" height="5.695" transform="translate(1186.97 1229.9)" stroke="#fff" stroke-linejoin="round" stroke-width="0.095"/>
            <rect id="矩形_204" data-name="矩形 204" width="0.475" height="5.695" transform="translate(1189.004 1231.075)" stroke="#fff" stroke-linejoin="round" stroke-width="0.095"/>
            <rect id="矩形_205" data-name="矩形 205" width="0.475" height="5.694" transform="translate(1191.039 1232.249)" stroke="#fff" stroke-linejoin="round" stroke-width="0.095"/>
            <path id="路径_339" data-name="路径 339" d="M1174.4,1224.731a1.642,1.642,0,0,1,2.462-1.421l15.16,8.752a3,3,0,0,1,1.5,2.592v10.319a1.643,1.643,0,0,1-2.462,1.421l-.308-.178v-.915l.7.406a.848.848,0,0,0,1.272-.734v-10.319a2.205,2.205,0,0,0-1.1-1.905l-15.16-8.752a.848.848,0,0,0-1.272.734v10.319a2.205,2.205,0,0,0,1.015,1.852v.919l-.312-.18a3,3,0,0,1-1.5-2.591Z" stroke="#fff" stroke-linejoin="round" stroke-width="0.095"/>
            <path id="路径_340" data-name="路径 340" d="M1192.721,1239.307v-.916l-17.531-10.121v.915Z" stroke="#fff" stroke-linejoin="round" stroke-width="0.095"/>
            <path id="路径_341" data-name="路径 341" d="M1195.34,1213.973a.4.4,0,0,0-.163.306c0,.113.073.158.163.1a.4.4,0,0,0,.164-.305C1195.5,1213.962,1195.43,1213.917,1195.34,1213.973Z" stroke="#fff" stroke-linejoin="round" stroke-width="0.095"/>
            <path id="路径_342" data-name="路径 342" d="M1195.232,1214.244a.265.265,0,0,1,.108-.2.071.071,0,0,1,.079-.007h0l.068.046,0,.02-.038-.005v.013a.263.263,0,0,1-.108.2l-.019.01.006.022.005.023-.072-.049A.089.089,0,0,1,1195.232,1214.244Z" stroke="#fff" stroke-linejoin="round" stroke-width="0.095"/>
            <path id="路径_343" data-name="路径 343" d="M1195.408,1214.089a.263.263,0,0,0-.108.2c0,.074.049.1.108.067a.264.264,0,0,0,.108-.2C1195.516,1214.081,1195.468,1214.051,1195.408,1214.089Z" stroke="#fff" stroke-linejoin="round" stroke-width="0.095"/>
            <path id="路径_344" data-name="路径 344" d="M1195.408,1214.145a.154.154,0,0,0-.062.117c0,.043.028.06.062.039a.152.152,0,0,0,.063-.117C1195.471,1214.141,1195.443,1214.124,1195.408,1214.145Z" stroke="#fff" stroke-linejoin="round" stroke-width="0.095"/>
            <path id="路径_345" data-name="路径 345" d="M1195.4,1214.16a.108.108,0,0,0-.045.084c0,.03.02.043.045.027a.109.109,0,0,0,.044-.083C1195.441,1214.157,1195.421,1214.144,1195.4,1214.16Z" stroke="#fff" stroke-linejoin="round" stroke-width="0.095"/>
            <path id="路径_346" data-name="路径 346" d="M1195.34,1214.8a.4.4,0,0,0-.163.306c0,.113.073.158.163.1a.4.4,0,0,0,.164-.306C1195.5,1214.786,1195.43,1214.741,1195.34,1214.8Z" stroke="#fff" stroke-linejoin="round" stroke-width="0.095"/>
            <path id="路径_347" data-name="路径 347" d="M1195.232,1215.068a.265.265,0,0,1,.108-.2.069.069,0,0,1,.079-.007h0l.068.046,0,.02-.038-.005v.012a.264.264,0,0,1-.108.2l-.019.009.006.023.005.023-.072-.049A.089.089,0,0,1,1195.232,1215.068Z" stroke="#fff" stroke-linejoin="round" stroke-width="0.095"/>
            <path id="路径_348" data-name="路径 348" d="M1195.408,1214.912a.266.266,0,0,0-.108.2c0,.075.049.1.108.067a.262.262,0,0,0,.108-.2C1195.516,1214.905,1195.468,1214.875,1195.408,1214.912Z" stroke="#fff" stroke-linejoin="round" stroke-width="0.095"/>
            <path id="路径_349" data-name="路径 349" d="M1195.408,1214.969a.154.154,0,0,0-.062.117c0,.043.028.06.062.038a.148.148,0,0,0,.063-.116C1195.471,1214.965,1195.443,1214.948,1195.408,1214.969Z" stroke="#fff" stroke-linejoin="round" stroke-width="0.095"/>
            <path id="路径_350" data-name="路径 350" d="M1195.4,1214.984a.107.107,0,0,0-.045.083c0,.031.02.044.045.028a.11.11,0,0,0,.044-.084C1195.441,1214.981,1195.421,1214.968,1195.4,1214.984Z" stroke="#fff" stroke-linejoin="round" stroke-width="0.095"/>
            <path id="路径_351" data-name="路径 351" d="M1195.34,1217.313a.4.4,0,0,0-.163.306c0,.112.073.158.163.1a.4.4,0,0,0,.164-.306C1195.5,1217.3,1195.43,1217.256,1195.34,1217.313Z" stroke="#fff" stroke-linejoin="round" stroke-width="0.095"/>
            <path id="路径_352" data-name="路径 352" d="M1195.232,1217.584a.267.267,0,0,1,.108-.2.07.07,0,0,1,.079-.006h0l.068.046,0,.019-.038,0v.013a.26.26,0,0,1-.108.2l-.019.01.006.022.005.024-.072-.049A.089.089,0,0,1,1195.232,1217.584Z" stroke="#fff" stroke-linejoin="round" stroke-width="0.095"/>
            <path id="路径_353" data-name="路径 353" d="M1195.408,1217.428a.265.265,0,0,0-.108.2c0,.075.049.1.108.067a.262.262,0,0,0,.108-.2C1195.516,1217.421,1195.468,1217.391,1195.408,1217.428Z" stroke="#fff" stroke-linejoin="round" stroke-width="0.095"/>
            <path id="路径_354" data-name="路径 354" d="M1195.408,1217.485a.154.154,0,0,0-.062.117c0,.042.028.06.062.038a.15.15,0,0,0,.063-.116C1195.471,1217.481,1195.443,1217.463,1195.408,1217.485Z" stroke="#fff" stroke-linejoin="round" stroke-width="0.095"/>
            <path id="路径_355" data-name="路径 355" d="M1195.4,1217.5a.109.109,0,0,0-.045.084c0,.031.02.043.045.028a.111.111,0,0,0,.044-.084C1195.441,1217.5,1195.421,1217.484,1195.4,1217.5Z" stroke="#fff" stroke-linejoin="round" stroke-width="0.095"/>
            <path id="路径_356" data-name="路径 356" d="M1195.34,1218.137a.4.4,0,0,0-.163.306c0,.112.073.157.163.1a.4.4,0,0,0,.164-.306C1195.5,1218.125,1195.43,1218.08,1195.34,1218.137Z" stroke="#fff" stroke-linejoin="round" stroke-width="0.095"/>
            <path id="路径_357" data-name="路径 357" d="M1195.232,1218.407a.267.267,0,0,1,.108-.2.071.071,0,0,1,.079-.006h0l.068.047,0,.019-.038-.005v.013a.262.262,0,0,1-.108.2l-.019.01.006.022.005.024-.072-.05A.089.089,0,0,1,1195.232,1218.407Z" stroke="#fff" stroke-linejoin="round" stroke-width="0.095"/>
            <path id="路径_358" data-name="路径 358" d="M1195.408,1218.252a.265.265,0,0,0-.108.2c0,.074.049.1.108.067a.263.263,0,0,0,.108-.2C1195.516,1218.244,1195.468,1218.214,1195.408,1218.252Z" stroke="#fff" stroke-linejoin="round" stroke-width="0.095"/>
            <path id="路径_359" data-name="路径 359" d="M1195.408,1218.309a.152.152,0,0,0-.062.116c0,.043.028.06.062.039a.152.152,0,0,0,.063-.117C1195.471,1218.3,1195.443,1218.287,1195.408,1218.309Z" stroke="#fff" stroke-linejoin="round" stroke-width="0.095"/>
            <path id="路径_360" data-name="路径 360" d="M1195.4,1218.323a.109.109,0,0,0-.045.084c0,.031.02.043.045.028a.112.112,0,0,0,.044-.084C1195.441,1218.32,1195.421,1218.308,1195.4,1218.323Z" stroke="#fff" stroke-linejoin="round" stroke-width="0.095"/>
            <path id="路径_361" data-name="路径 361" d="M1176.033,1252.719l2.591,1.487v-21.125l-2.591-1.487Z" stroke="#fff" stroke-linejoin="round" stroke-width="0.095"/>
          </g>
          <path id="路径_362" data-name="路径 362" d="M1195.68,1259.973l.253.171,4.484-2.906.252-16.016-.273-.159-1.855,1.071c-1.58.912-2.861,5.314-2.861,11.576Z" fill="#f70b0b" stroke="#000" stroke-linejoin="round" stroke-width="0.095"/>
          <path id="路径_363" data-name="路径 363" d="M1195.933,1260.144l4.736-2.735v-16.187l-1.876,1.083c-1.58.912-2.86,5.315-2.86,11.577Z" fill="#f70b0b" stroke="#000" stroke-linejoin="round" stroke-width="0.095"/>
          <path id="路径_364" data-name="路径 364" d="M1199.843,1246.318l-.862.5.283,1.575.58-.441Z" fill="#f70b0b" stroke="#000" stroke-linejoin="round" stroke-width="0.095"/>
          <path id="路径_365" data-name="路径 365" d="M1199.743,1246.569l-.166-.1v-2.882l.166,1.151Z" fill="#f70b0b" stroke="#000" stroke-linejoin="round" stroke-width="0.095"/>
          <path id="路径_366" data-name="路径 366" d="M1200.968,1242.479l-.3-.206v.18l-1.688.985.093,1.508,1-.424.682.481Z" fill="#f70b0b" stroke="#000" stroke-linejoin="round" stroke-width="0.095"/>
          <path id="路径_367" data-name="路径 367" d="M1199.138,1246.925l-.158-.109v1.56l.158.093Z" fill="#f70b0b" stroke="#000" stroke-linejoin="round" stroke-width="0.095"/>
          <path id="路径_368" data-name="路径 368" d="M1200.757,1242.6l-1.619.948v1.578l.6-.332v1.777l-.6.355v1.544l1.829-1.046v-4.944Z" fill="#f70b0b" stroke="#000" stroke-linejoin="round" stroke-width="0.095"/>
          <path id="路径_369" data-name="路径 369" d="M1199.138,1243.546l-.158-.109v1.593l.158.093Z" fill="#f70b0b" stroke="#000" stroke-linejoin="round" stroke-width="0.095"/>
        </g>
      </g>
    </g>
  </g>
</svg>
